#!OML:ASF H:\LiuWeirdWalks\Patient Classification 1\Patient 1\Session 1\male.ASF
:FULLY-SPECIFIED
:DEGREES
708
root 1.47947 18.2259 -3.1672 3.22809 5.93305 -2.22664
lowerback 2.22857 -3.14594 -0.275817
upperback -1.77962 -4.10657 3.90667
thorax -2.77401 -2.0063 4.36735
lowerneck -15.2049 0.927843 5.73829
upperneck 22.2304 1.1775 -5.59488
head 9.59734 0.397537 -2.76527
rclavicle -2.99419e-015 -2.06736e-014
rhumerus -46.2018 -15.0575 -68.7041
rradius 25.488
rwrist -5.29386
rhand -16.9098 -4.39884
rfingers 7.12502
rthumb 9.32233 -34.1727
lclavicle -2.99419e-015 -2.06736e-014
lhumerus -36.2608 -2.90584 87.2408
lradius 36.1048
lwrist 13.1591
lhand -12.2452 -1.31901
lfingers 7.12502
lthumb 13.8207 28.2019
rfemur -17.3292 0.161221 26.6079
rtibia 25.6972
rfoot -7.20636 -14.2736
rtoes 2.88483
lfemur 4.63968 -3.13951 -14.5881
ltibia 39.501
lfoot 21.4771 -8.69062
ltoes -13.2103
709
root 1.46607 18.2264 -3.09562 3.10883 5.98159 -2.39433
lowerback 2.28248 -3.06547 -0.124615
upperback -1.73536 -3.99255 3.93777
thorax -2.77535 -1.95215 4.31224
lowerneck -15.1936 0.895448 5.69165
upperneck 22.2414 1.14249 -5.58158
head 9.59638 0.379239 -2.7572
rclavicle 6.73383e-015 -3.97569e-015
rhumerus -46.0452 -14.9945 -68.8578
rradius 25.4998
rwrist -5.32013
rhand -16.9192 -4.44538
rfingers 7.12502
rthumb 9.31329 -34.2197
lclavicle 6.73383e-015 -3.97569e-015
lhumerus -36.349 -2.97031 87.2919
lradius 36.2661
lwrist 13.2003
lhand -12.3566 -1.37703
lfingers 7.12502
lthumb 13.7133 28.1511
rfemur -16.8855 0.0696742 26.878
rtibia 25.5468
rfoot -7.34027 -14.2297
rtoes 2.85097
lfemur 3.92056 -3.21748 -14.2445
ltibia 40.9237
lfoot 21.4526 -9.17894
ltoes -10.7455
710
root 1.45376 18.2268 -3.02445 2.98985 6.01449 -2.53557
lowerback 2.31391 -2.97974 0.0122678
upperback -1.68657 -3.87286 3.95711
thorax -2.75917 -1.89525 4.25086
lowerneck -15.1599 0.863141 5.64781
upperneck 22.2429 1.10845 -5.57114
head 9.58795 0.361553 -2.75017
rclavicle 1.44119e-014 -1.98785e-014
rhumerus -45.8787 -14.9218 -69.0212
rradius 25.5089
rwrist -5.32887
rhand -16.8992 -4.45527
rfingers 7.12502
rthumb 9.33256 -34.2287
lclavicle 1.44119e-014 -1.98785e-014
lhumerus -36.4332 -3.02966 87.3375
lradius 36.4154
lwrist 13.2554
lhand -12.4476 -1.38089
lfingers 7.12502
lthumb 13.6256 28.1532
rfemur -16.4416 -0.0377231 27.1144
rtibia 25.4027
rfoot -7.48245 -14.1553
rtoes 2.81478
lfemur 3.21187 -3.27299 -13.9392
ltibia 42.3039
lfoot 20.8716 -9.57587
ltoes -9.18894
711
root 1.4417 18.2272 -2.9544 2.87485 6.04204 -2.67189
lowerback 2.33402 -2.89086 0.150239
upperback -1.63829 -3.74932 3.97056
thorax -2.7374 -1.83649 4.18181
lowerneck -15.1463 0.8268 5.60225
upperneck 22.2761 1.06647 -5.54999
head 9.59398 0.341089 -2.74083
rclavicle 5.54858e-014 -1.11319e-014
rhumerus -45.7148 -14.8235 -69.2083
rradius 25.5385
rwrist -5.34961
rhand -16.8548 -4.43435
rfingers 7.12502
rthumb 9.37547 -34.2058
lclavicle 5.54858e-014 -1.11319e-014
lhumerus -36.5004 -3.07469 87.3717
lradius 36.5282
lwrist 13.2815
lhand -12.5347 -1.40904
lfingers 7.12502
lthumb 13.5417 28.1306
rfemur -16.0055 -0.145905 27.3431
rtibia 25.2614
rfoot -7.62013 -14.0761
rtoes 2.76955
lfemur 2.4985 -3.30008 -13.636
ltibia 43.6343
lfoot 19.7135 -9.8526
ltoes -8.83595
712
root 1.43019 18.2275 -2.88568 2.76292 6.05434 -2.8043
lowerback 2.34602 -2.79448 0.293107
upperback -1.59126 -3.61591 3.97784
thorax -2.71321 -1.77289 4.10268
lowerneck -15.1117 0.801532 5.59055
upperneck 22.3022 1.03739 -5.55011
head 9.59459 0.32736 -2.74281
rclavicle -1.21134e-014 1.27222e-014
rhumerus -45.5517 -14.7073 -69.4175
rradius 25.5893
rwrist -5.39858
rhand -16.8051 -4.39982
rfingers 7.12502
rthumb 9.42342 -34.1691
lclavicle -1.21134e-014 1.27222e-014
lhumerus -36.5703 -3.10994 87.3935
lradius 36.6321
lwrist 13.2844
lhand -12.583 -1.40997
lfingers 7.12502
lthumb 13.4951 28.1328
rfemur -15.577 -0.251562 27.5634
rtibia 25.1212
rfoot -7.75663 -13.9907
rtoes 2.72877
lfemur 1.78192 -3.29001 -13.3364
ltibia 44.9058
lfoot 18.0172 -9.98006
ltoes -9.66486
713
root 1.41885 18.2277 -2.81823 2.6536 6.06296 -2.93498
lowerback 2.35175 -2.69638 0.438725
upperback -1.54462 -3.48043 3.98024
thorax -2.68589 -1.7083 4.01647
lowerneck -15.0971 0.774032 5.58008
upperneck 22.3375 1.00133 -5.53898
head 9.60182 0.311548 -2.74223
rclavicle 1.18153e-014 -3.10104e-014
rhumerus -45.3819 -14.5961 -69.6395
rradius 25.6475
rwrist -5.44729
rhand -16.7627 -4.36529
rfingers 7.12502
rthumb 9.46427 -34.1328
lclavicle 1.18153e-014 -3.10104e-014
lhumerus -36.6376 -3.11371 87.3963
lradius 36.7187
lwrist 13.2546
lhand -12.6112 -1.42913
lfingers 7.12502
lthumb 13.4679 28.1154
rfemur -15.1555 -0.349856 27.7796
rtibia 24.9812
rfoot -7.88834 -13.9191
rtoes 2.67854
lfemur 1.06016 -3.26219 -13.0399
ltibia 46.1132
lfoot 15.9053 -9.92147
ltoes -11.4477
714
root 1.40746 18.2276 -2.75252 2.55364 6.04655 -3.07895
lowerback 2.35787 -2.59288 0.594142
upperback -1.50663 -3.33703 3.98733
thorax -2.66786 -1.63966 3.92964
lowerneck -15.1136 0.745865 5.54282
upperneck 22.4395 0.964178 -5.49755
head 9.63813 0.296231 -2.72815
rclavicle -2.01269e-015 -2.8625e-014
rhumerus -45.2116 -14.459 -69.8799
rradius 25.7212
rwrist -5.51835
rhand -16.7301 -4.32567
rfingers 7.12502
rthumb 9.4958 -34.0917
lclavicle -2.01269e-015 -2.8625e-014
lhumerus -36.7072 -3.09025 87.3855
lradius 36.7798
lwrist 13.2069
lhand -12.6233 -1.47045
lfingers 7.12502
lthumb 13.4563 28.0749
rfemur -14.7532 -0.418526 28.009
rtibia 24.8441
rfoot -8.01176 -13.8608
rtoes 2.63513
lfemur 0.32376 -3.19456 -12.7294
ltibia 47.2509
lfoot 13.6061 -9.69812
ltoes -13.5327
715
root 1.39614 18.227 -2.68855 2.45968 6.01749 -3.22359
lowerback 2.37948 -2.48986 0.749829
upperback -1.47738 -3.19356 3.99355
thorax -2.66694 -1.57072 3.84289
lowerneck -15.1451 0.718492 5.48964
upperneck 22.5555 0.928039 -5.4407
head 9.68231 0.281653 -2.7062
rclavicle -2.98177e-015 -7.95139e-016
rhumerus -45.036 -14.318 -70.1267
rradius 25.7973
rwrist -5.5774
rhand -16.7135 -4.27551
rfingers 7.12502
rthumb 9.51183 -34.0408
lclavicle -2.98177e-015 -7.95139e-016
lhumerus -36.7792 -3.04763 87.3589
lradius 36.8208
lwrist 13.1673
lhand -12.6233 -1.47881
lfingers 7.12502
lthumb 13.4563 28.0665
rfemur -14.3658 -0.460914 28.2377
rtibia 24.712
rfoot -8.13266 -13.8264
rtoes 2.60279
lfemur -0.423 -3.10411 -12.4228
ltibia 48.3144
lfoot 11.3303 -9.34151
ltoes -15.4855
716
root 1.38506 18.2263 -2.62598 2.36946 5.97369 -3.36488
lowerback 2.40222 -2.38863 0.900061
upperback -1.44902 -3.05254 4.00377
thorax -2.66622 -1.50286 3.76341
lowerneck -15.2022 0.688362 5.38926
upperneck 22.6854 0.891878 -5.35377
head 9.73611 0.266178 -2.66609
rclavicle -3.67876e-014 -2.06736e-014
rhumerus -44.838 -14.1567 -70.3777
rradius 25.8721
rwrist -5.63947
rhand -16.7035 -4.23446
rfingers 7.12502
rthumb 9.52146 -33.9993
lclavicle -3.67876e-014 -2.06736e-014
lhumerus -36.8495 -2.97598 87.3238
lradius 36.8433
lwrist 13.1321
lhand -12.6359 -1.46063
lfingers 7.12502
lthumb 13.4441 28.0855
rfemur -13.9889 -0.491946 28.4611
rtibia 24.5869
rfoot -8.25492 -13.7986
rtoes 2.57254
lfemur -1.1751 -2.99259 -12.1283
ltibia 49.2987
lfoot 9.23471 -8.85265
ltoes -16.966
